# xmcd CD database generated by RipIT
#
# Track frame offsets:
# 183
# 15215
# 34023
# 49760
# 69020
# 89848
# 108293
# 124243
# 147290
# 168065
# 187968
# 214875
#
# Disc length: 3239 seconds
#
# Revision: 0
# Processed by: cddbd v1.5.2PL0 Copyright (c) Steve Scherf et al.
# Submitted via: RipIT 3.7.0-beta20090329 www.suwald.com/ripit/ripit.html on 2009-05-21 at 09:01
#
DISCID=990ca50c
DTITLE=Mia Martini - Rapsodia
DYEAR=1992
DGENRE=Pop
TTITLE0=Rapsodia
TTITLE1=Piccolo uomo
TTITLE2=Donna sola
TTITLE3=Inno
TTITLE4=Minuetto
TTITLE5=E non finisce mica il cielo
TTITLE6=Scrupoli
TTITLE7=Almeno tu nell'universo
TTITLE8=La nevicata del '56
TTITLE9=Cu' mme'
TTITLE10=Stelle
TTITLE11=La costruzione di un amore
EXTD=
EXTT0=
EXTT1=
EXTT2=
EXTT3=
EXTT4=
EXTT5=
EXTT6=
EXTT7=
EXTT8=
EXTT9=
EXTT10=
EXTT11=
PLAYORDER=
